<svg version="1.1" xmlns="http://www.w3.org/2000/svg"><g transform="translate(500,350)"><path d="M1.5308084989341916e-14,-250A250,250 0 0,1 187.20772660248247,165.6902746099788L0,0Z" stroke-width="1px" fill="#668D3C" style="stroke: rgb(0, 0, 0);"></path><path d="M187.20772660248247,165.6902746099788A250,250 0 0,1 -91.37699874283192,232.7020500570472L0,0Z" stroke-width="1px" fill="#4E6172" style="stroke: rgb(0, 0, 0);"></path><path d="M-91.37699874283192,232.7020500570472A250,250 0 0,1 -227.4317023947039,103.80183401966862L0,0Z" stroke-width="1px" fill="#DBCA69" style="stroke: rgb(0, 0, 0);"></path><path d="M-227.4317023947039,103.80183401966862A250,250 0 0,1 -249.00719446675424,-22.25796719819772L0,0Z" stroke-width="1px" fill="#C8707E" style="stroke: rgb(0, 0, 0);"></path><path d="M-249.00719446675424,-22.25796719819772A250,250 0 0,1 -219.2759878548703,-120.07514792941453L0,0Z" stroke-width="1px" fill="#D57500" style="stroke: rgb(0, 0, 0);"></path><path d="M-219.2759878548703,-120.07514792941453A250,250 0 0,1 -169.18664044493352,-184.05401569907892L0,0Z" stroke-width="1px" fill="#8F3B1B" style="stroke: rgb(0, 0, 0);"></path><path d="M-169.18664044493352,-184.05401569907892A250,250 0 0,1 -109.1976232982355,-224.89081587743118L0,0Z" stroke-width="1px" fill="#404F24" style="stroke: rgb(0, 0, 0);"></path><path d="M-109.1976232982355,-224.89081587743118A250,250 0 0,1 -46.19146576627556,-245.69564198488138L0,0Z" stroke-width="1px" fill="#A3ADB8" style="stroke: rgb(0, 0, 0);"></path><path d="M-46.19146576627556,-245.69564198488138A250,250 0 0,1 -21.319826882030252,-249.0892711092155L0,0Z" stroke-width="1px" fill="#B99C6B" style="stroke: rgb(0, 0, 0);"></path><path d="M-21.319826882030252,-249.0892711092155A250,250 0 0,1 -10.042357783607118,-249.79822067049642L0,0Z" stroke-width="1px" fill="#BDD09F" style="stroke: rgb(0, 0, 0);"></path><path d="M-10.042357783607118,-249.79822067049642A250,250 0 0,1 -4.5924254968025744e-14,-250L0,0Z" stroke-width="1px" fill="#83929F" style="stroke: rgb(0, 0, 0);"></path><g transform="translate(310,0)" id="legendHolder"><g class="subsystemslegend" transform="translate(-14,-160)"><rect width="60px" height="20px" fill="white" class="dgrid-expando-icon ui-icon ui-icon-triangle-1-e" style="0"></rect><text font-family="FontAwesome" y="12" font-size="undefinedem" x="0"></text><rect x="14" width="14" height="14" style="fill: rgb(102, 141, 60); stroke: rgb(102, 141, 60);"></rect><text x="33" y="11">Metabolism</text><text x="119.69189453125" y="11" style="fill: rgb(118, 167, 45);"> (72, </text><text x="150.5390625" y="11" style="fill: rgb(255, 203, 0);">457)</text></g><g class="subsystemslegend" transform="translate(-14,-141)"><rect width="60px" height="20px" fill="white" class="dgrid-expando-icon ui-icon ui-icon-triangle-1-e" style="0"></rect><text font-family="FontAwesome" y="12" font-size="undefinedem" x="0"></text><rect x="14" width="14" height="14" style="fill: rgb(78, 97, 114); stroke: rgb(78, 97, 114);"></rect><text x="33" y="11">Protein Processing</text><text x="168.89599609375" y="11" style="fill: rgb(118, 167, 45);"> (44, </text><text x="199.7431640625" y="11" style="fill: rgb(255, 203, 0);">243)</text></g><g class="subsystemslegend" transform="translate(-14,-122)"><rect width="60px" height="20px" fill="white" class="dgrid-expando-icon ui-icon ui-icon-triangle-1-e" style="0"></rect><text font-family="FontAwesome" y="12" font-size="undefinedem" x="0"></text><rect x="14" width="14" height="14" style="fill: rgb(219, 202, 105); stroke: rgb(219, 202, 105);"></rect><text x="33" y="11">Energy</text><text x="90.52685546875" y="11" style="fill: rgb(118, 167, 45);"> (22, </text><text x="121.3740234375" y="11" style="fill: rgb(255, 203, 0);">153)</text></g><g class="subsystemslegend" transform="translate(-14,-103)"><rect width="60px" height="20px" fill="white" class="dgrid-expando-icon ui-icon ui-icon-triangle-1-e" style="0"></rect><text font-family="FontAwesome" y="12" font-size="undefinedem" x="0"></text><rect x="14" width="14" height="14" style="fill: rgb(200, 112, 126); stroke: rgb(200, 112, 126);"></rect><text x="33" y="11">Stress Response, Defense, Virulence</text><text x="292.0234375" y="11" style="fill: rgb(118, 167, 45);"> (27, </text><text x="322.87060546875" y="11" style="fill: rgb(255, 203, 0);">103)</text></g><g class="subsystemslegend" transform="translate(-14,-84)"><rect width="60px" height="20px" fill="white" class="dgrid-expando-icon ui-icon ui-icon-triangle-1-e" style="0"></rect><text font-family="FontAwesome" y="12" font-size="undefinedem" x="0"></text><rect x="14" width="14" height="14" style="fill: rgb(213, 117, 0); stroke: rgb(213, 117, 0);"></rect><text x="33" y="11">DNA Processing</text><text x="153.0390625" y="11" style="fill: rgb(118, 167, 45);"> (19, </text><text x="183.88623046875" y="11" style="fill: rgb(255, 203, 0);">82)</text></g><g class="subsystemslegend" transform="translate(-14,-65)"><rect width="60px" height="20px" fill="white" class="dgrid-expando-icon ui-icon ui-icon-triangle-1-e" style="0"></rect><text font-family="FontAwesome" y="12" font-size="undefinedem" x="0"></text><rect x="14" width="14" height="14" style="fill: rgb(143, 59, 27); stroke: rgb(143, 59, 27);"></rect><text x="33" y="11">Cellular Processes</text><text x="168.04638671875" y="11" style="fill: rgb(118, 167, 45);"> (12, </text><text x="198.8935546875" y="11" style="fill: rgb(255, 203, 0);">65)</text></g><g class="subsystemslegend" transform="translate(-14,-46)"><rect width="60px" height="20px" fill="white" class="dgrid-expando-icon ui-icon ui-icon-triangle-1-e" style="0"></rect><text font-family="FontAwesome" y="12" font-size="undefinedem" x="0"></text><rect x="14" width="14" height="14" style="fill: rgb(64, 79, 36); stroke: rgb(64, 79, 36);"></rect><text x="33" y="11">Membrane Transport</text><text x="182.4970703125" y="11" style="fill: rgb(118, 167, 45);"> (11, </text><text x="212.23095703125" y="11" style="fill: rgb(255, 203, 0);">58)</text></g><g class="subsystemslegend" transform="translate(-14,-27)"><rect width="60px" height="20px" fill="white" class="dgrid-expando-icon ui-icon ui-icon-triangle-1-e" style="0"></rect><text font-family="FontAwesome" y="12" font-size="undefinedem" x="0"></text><rect x="14" width="14" height="14" style="fill: rgb(163, 173, 184); stroke: rgb(163, 173, 184);"></rect><text x="33" y="11">RNA Processing</text><text x="153.0390625" y="11" style="fill: rgb(118, 167, 45);"> (13, </text><text x="183.88623046875" y="11" style="fill: rgb(255, 203, 0);">53)</text></g><g class="subsystemslegend" transform="translate(-14,-8)"><rect width="60px" height="20px" fill="white" class="dgrid-expando-icon ui-icon ui-icon-triangle-1-e" style="0"></rect><text font-family="FontAwesome" y="12" font-size="undefinedem" x="0"></text><rect x="14" width="14" height="14" style="fill: rgb(185, 156, 107); stroke: rgb(185, 156, 107);"></rect><text x="33" y="11">Cell Envelope</text><text x="135.55615234375" y="11" style="fill: rgb(118, 167, 45);"> (4, </text><text x="158.06103515625" y="11" style="fill: rgb(255, 203, 0);">20)</text></g><g class="subsystemslegend" transform="translate(-14,11)"><rect width="60px" height="20px" fill="white" class="dgrid-expando-icon ui-icon ui-icon-triangle-1-e" style="0"></rect><text font-family="FontAwesome" y="12" font-size="undefinedem" x="0"></text><rect x="14" width="14" height="14" style="fill: rgb(189, 208, 159); stroke: rgb(189, 208, 159);"></rect><text x="33" y="11">Miscellaneous</text><text x="138.04638671875" y="11" style="fill: rgb(118, 167, 45);"> (4, </text><text x="160.55126953125" y="11" style="fill: rgb(255, 203, 0);">9)</text></g><g class="subsystemslegend" transform="translate(-14,30)"><rect width="60px" height="20px" fill="white" class="dgrid-expando-icon ui-icon ui-icon-triangle-1-e" style="0"></rect><text font-family="FontAwesome" y="12" font-size="undefinedem" x="0"></text><rect x="14" width="14" height="14" style="fill: rgb(131, 146, 159); stroke: rgb(131, 146, 159);"></rect><text x="33" y="11">Regulation And Cell Signaling</text><text x="241.46435546875" y="11" style="fill: rgb(118, 167, 45);"> (2, </text><text x="263.96923828125" y="11" style="fill: rgb(255, 203, 0);">8)</text></g></g></g><text x="500" y="50" text-anchor="middle" style="font-weight: bold; font-size: 14px;">Subsystem Category Distribution - Staphylococcus aureus subsp. aureus strain VB4283</text><text x="800" y="100" text-anchor="top" style="font-weight: bold; font-size: 14px;">Subsystem Counts</text><text x="935" y="100" text-anchor="top" style="font-weight: bold; font-size: 14px; fill: rgb(118, 167, 45);"> (Subsystems, </text><text x="1030" y="100" text-anchor="top" style="font-weight: bold; font-size: 14px; fill: rgb(255, 203, 0);">Genes)</text><g transform="translate(100,0)"></g><rect x="120" y="130" width="50" id="subsystemsCovered" height="134" style="fill: rgb(57, 159, 86);"></rect><rect x="120" y="264" width="50" id="subsystemsNotCovered" height="266" style="fill: rgb(63, 105, 147);"></rect><text x="150" y="100" text-anchor="middle" style="font-weight: bold; font-size: 14px;">Subsystem Coverage</text><text x="145" y="197" text-anchor="middle" style="fill: rgb(255, 255, 255);">39%</text><text x="145" y="397" text-anchor="middle" style="fill: rgb(255, 255, 255);">61%</text></svg>