<svg xmlns="http://www.w3.org/2000/svg" xmlns:xlink="http://www.w3.org/1999/xlink" version="1.1" width="870.4285712826008" height="201" enable-background="new 0 0 1800 1800" xml:space="preserve" style=""><rect id="backgroundrect" width="100%" height="100%" x="0" y="0" fill="none" stroke="none" style="" class=""/>





<g class="currentLayer" style=""><title>Layer 1</title><g id="box" display="none">
	
		<rect x="395.00201416015625" y="545.0009765625" display="inline" fill="#FFFFFF" stroke="#0C456F" stroke-width="9" stroke-linejoin="bevel" stroke-miterlimit="10" width="944" height="354.9989929199219" id="svg_1"/>
</g><g id="Guides" display="none">
</g><g id="Color" class="">
	<g id="Blue_ext._flagellum__x3C_Group_x3E_">
		<linearGradient id="SVGID_1_" x1="-0.0000010706595538163965" y1="0.4999821429482503" x2="1.0000021413191076" y2="0.4999821429482503" transform="translate(-444.2857360839844,-581.4285888671875) ">
			<stop offset="0.227" style="stop-color:#28AAE2"/>
			<stop offset="1" style="stop-color:#28AAE2;stop-opacity:0"/>
		</linearGradient>
		<path fill="url(#SVGID_1_)" d="M413.0042639160156,115.20341113281245 c-17.111,0 -38.085,-4.453 -63.567,-16.897 c-64.163,-31.335 -120.373,-8.237 -120.932,-7.999 c-0.7080000000000001,0.29800000000000004 -1.521,-0.03200000000000001 -1.82,-0.7380000000000001 s0.03200000000000001,-1.521 0.7380000000000001,-1.82 c0.5860000000000001,-0.24800000000000003 14.609,-6.094 36.906,-8.079 c20.558,-1.832 52.219,-0.516 86.326,16.141 c72.64,35.474 107.623,4.71 120.793,-6.871 c1.01,-0.8880000000000001 1.904,-1.6750000000000003 2.692,-2.3280000000000003 c0.516,-0.42900000000000005 1.068,-0.8930000000000001 1.6560000000000001,-1.387 c16.909,-14.203 61.819,-51.937 149.016,-12.117 c0.6970000000000002,0.31900000000000006 1.005,1.143 0.6870000000000002,1.8410000000000002 c-0.31900000000000006,0.6980000000000002 -1.142,1.004 -1.8410000000000002,0.6870000000000002 c-85.592,-39.091 -129.532,-2.18 -146.074,11.717 c-0.5940000000000001,0.49800000000000005 -1.149,0.9650000000000001 -1.6700000000000002,1.3960000000000001 c-0.77,0.6400000000000001 -1.645,1.409 -2.632,2.276 C464.3802639160157,98.85241113281245 445.7842639160157,115.20241113281247 413.0042639160156,115.20341113281245 L413.0042639160156,115.20341113281245 z" id="svg_2"/>
		<linearGradient id="SVGID_2_" x1="0.0000012735424111175158" y1="0.4999970052886602" x2="0.9999992162815932" y2="0.4999970052886602" transform="translate(-444.2857360839844,-581.4285888671875) ">
			<stop offset="0.227" style="stop-color:#28AAE2"/>
			<stop offset="1" style="stop-color:#28AAE2;stop-opacity:0"/>
		</linearGradient>
		<path fill="url(#SVGID_2_)" d="M383.0942639160156,89.81441113281255 c-16.177,0 -35.941,-2.7680000000000002 -58.727,-11.139 c-73.662,-27.069 -136.138,5.314 -136.76,5.646 c-0.6040000000000001,0.31800000000000006 -1.354,0.09100000000000003 -1.677,-0.515 c-0.32000000000000006,-0.6040000000000001 -0.09100000000000003,-1.355 0.515,-1.677 c0.15800000000000003,-0.08400000000000002 16.136,-8.464 41.091,-13.317 c23.023,-4.479 58.658,-6.806 97.687,7.535 c38.397,14.106 68.022,12.075 86.11,7.885 c19.595,-4.538 30.26,-12.514 30.365,-12.594 c0.3370000000000001,-0.22500000000000003 27.193,-17.593 69.128,-26.928 c38.697,-8.616 98.56,-11.983 163.974,20.897 c70.845,35.612 131.745,14.164 132.352,13.943 c0.6420000000000001,-0.233 1.355,0.09700000000000003 1.59,0.7410000000000001 c0.234,0.6430000000000001 -0.09700000000000003,1.354 -0.7400000000000001,1.589 c-0.15400000000000003,0.05700000000000001 -15.745000000000001,5.649 -39.966,6.683 c-22.318,0.9460000000000001 -56.817,-1.874 -94.349,-20.74 c-64.762,-32.552 -124.017,-29.222 -162.321,-20.692 c-41.498,9.237 -67.976,26.359 -68.238,26.531 c-0.37100000000000005,0.28700000000000003 -11.024,8.277 -31.086,12.951 C404.3602639160156,88.40441113281247 394.64126391601565,89.81441113281255 383.0942639160156,89.81441113281255 L383.0942639160156,89.81441113281255 z" id="svg_3"/>
		<linearGradient id="SVGID_3_" x1="3.486551383457778e-7" y1="0.5000250441469697" x2="0.9999990702529644" y2="0.5000250441469697" transform="translate(-444.2857360839844,-581.4285888671875) ">
			<stop offset="0.227" style="stop-color:#28AAE2"/>
			<stop offset="1" style="stop-color:#28AAE2;stop-opacity:0"/>
		</linearGradient>
		<path fill="url(#SVGID_3_)" d="M549.0592639160157,116.72641113281247 c-37.882,0.0010000000000000002 -76.617,-9.63 -104.008,-26.572 c-0.22900000000000004,-0.15900000000000003 -16.741,-11.693 -42.257,-17.416 c-23.501,-5.271 -59.688,-6.546 -98.641,17.307 c-39.734,24.332 -71.023,22.99 -90.278,17.582 c-20.923000000000002,-5.8790000000000004 -32.243,-17.389 -32.715,-17.875 c-0.47900000000000004,-0.49600000000000005 -0.467,-1.287 0.028000000000000004,-1.7680000000000002 c0.49700000000000005,-0.47900000000000004 1.288,-0.46900000000000003 1.7680000000000002,0.027000000000000007 c0.11100000000000002,0.11500000000000002 11.409,11.571 31.729,17.245 c18.752,5.234 49.266,6.476 88.162,-17.345 c39.709,-24.315 76.622,-22.988 100.598,-17.59 c25.974,5.846 42.819,17.63 42.986,17.748 c33.423,20.672 84.159,30.301 129.199,24.488 c54.486,-7.03 110.944,-39.229 128.334,-52.838 c0.544,-0.42400000000000004 1.332,-0.32900000000000007 1.7550000000000001,0.21400000000000002 c0.42600000000000005,0.544 0.33000000000000007,1.3290000000000002 -0.21400000000000002,1.7550000000000001 c-17.56,13.741 -74.56,46.253 -129.555,53.35 C567.1502639160157,116.17541113281254 558.1252639160156,116.72641113281247 549.0592639160157,116.72641113281247 L549.0592639160157,116.72641113281247 z" id="svg_4"/>
	</g>
	
		<linearGradient id="Bacteria__x3C_Path_x3E__2_" x1="1.000000272112694" y1="0.5000013906871246" x2="0.0000013605634691973874" y2="0.5000013906871246" transform="translate(-444.2857360839844,-581.4285888671875) ">
		<stop offset="0" style="stop-color:#21A8C8"/>
		<stop offset="1" style="stop-color:#0C456F"/>
	</linearGradient>
	<path id="Bacteria__x3C_Path_x3E__1_" fill="url(#Bacteria__x3C_Path_x3E__2_)" d="M187.02626391601564,42.07441113281254 c26.381,0 47.768,19.649 47.768,43.888 l0,0 c0,24.238 -21.387,43.889 -47.768,43.889 H58.26226391601563 c-26.382,0 -47.769,-19.65 -47.769,-43.889 l0,0 c0,-24.238 21.387,-43.888 47.769,-43.888 H187.02626391601564 z"/>
	<g id="Blue_int._flagellum__x3C_Group_x3E_">
		<path fill="#21A8C8" d="M217.5562639160156,119.72841113281254 c-21.282,-8.576 -41.841,-24.442 -65.236,-36.75 c-37.708,-19.838 -91.204,-3.911 -130.615,29.839 l-0.6860000000000002,0.6540000000000001 c-1.188,-1.344 -2.906,-3.625 -3.641,-4.797 l0.7610000000000001,-0.6790000000000002 c40.502,-33.892 96.22,-46.627 135.363,-25.55 c22.066,11.881 43.571,27.938 66.244,35.433 C219.32026391601562,118.35241113281245 218.28426391601568,119.09641113281248 217.5562639160156,119.72841113281254 z" id="svg_5"/>
		<path fill="#21A8C8" d="M230.04126391601562,104.38541113281246 c-29.088,8.17 -61.132,7.228 -92.952,-10.771 c-35.757,-20.222 -63.768,-42.555 -95.39,-48.849 c-5.734,1.935 -9.883000000000001,4.667 -9.883000000000001,4.667 c35.708,1.093 65.429,22.605 104.864,44.91 c31.35,17.73 62.768,20.168 91.551,13.365 C228.4652639160156,107.63541113281246 230.59126391601558,104.6194111328125 230.04126391601562,104.38541113281246 z" id="svg_6"/>
	</g>
	<g id="White_int._flagellum__x3C_Group_x3E__1_">
		<path fill="#FFFFFF" d="M227.18326391601568,110.25241113281254 l-2.6430000000000002,2.947 c-0.3330000000000001,-0.06400000000000002 -0.6740000000000002,-0.134 -1.022,-0.20800000000000002 c-27.542,-5.854 -51.747,-25.771 -80.925,-41.121 c-37.318,-19.632 -90.099,-4.237 -129.387,28.796 c-1.734,-4.199 -1.822,-6.206 -1.822,-6.206 c40.223,-32.063 94.197,-43.689 132.392,-23.123 c27.195,14.645 52.733,34.82 81.833,38.682 C225.99726391601564,110.06941113281255 226.82026391601562,110.1964111328125 227.18326391601568,110.25241113281254 z" id="svg_7"/>
		<path fill="#FFFFFF" d="M234.91126391601563,88.07541113281252 c-33.682,13.43 -69.877,15.738 -107.549,-5.568 c-26.061,-14.739 -48.006,-30.599 -70.234,-40.553 c-5.6080000000000005,-0.10600000000000001 -8.531,0.904 -8.531,0.904 c25.051,7.648 49.047,23.799 78.357,40.377 c38.008,21.498 74.238,20.814 108.432,8.01 C236.3502639160156,91.03941113281246 236.3502639160156,88.32541113281252 234.91126391601563,88.07541113281252 z" id="svg_8"/>
	</g>
	<g id="PATRIC">
		<path fill="#0C456F" d="M267.17926391601566,12.388411132812507 h37.079 c18.359,0 26.999,2.88 34.379,7.74 c9.899000000000001,6.659 16.559,17.999 16.559,32.039 c0,14.039 -6.659,25.379 -16.559,32.038 c-7.38,4.86 -16.02,7.739 -34.379,7.739 h-23.759 v53.639 h-13.32 V12.388411132812507 zM280.4992639160156,79.88641113281255 h19.259 c14.22,0 19.079,0 26.639,-3.42 c10.439,-4.86 15.479,-14.22 15.479,-24.299 c0,-10.08 -5.04,-19.439 -15.479,-24.3 c-7.5600000000000005,-3.42 -12.419,-3.42 -26.639,-3.42 h-19.259 V79.88641113281255 z" id="svg_9"/>
		<path fill="#0C456F" d="M398.79926391601566,12.388411132812507 h14.938 l57.238,133.195 h-14.579 l-19.26,-44.818 h-61.917 l-19.439,44.818 h-13.859 L398.79926391601566,12.388411132812507 zM380.2592639160156,88.70641113281249 h51.658 l-25.559,-61.198 L380.2592639160156,88.70641113281249 z" id="svg_10"/>
		<path fill="#0C456F" d="M496.5522639160156,24.448411132812453 h-30.599 v-12.06 h74.337 v12.06 h-30.419 v121.136 h-13.319 V24.448411132812453 z" id="svg_11"/>
		<path fill="#0C456F" d="M554.1522639160156,12.388411132812507 h33.839 c17.819,0 26.639,2.16 32.758,5.04 c14.939,7.02 23.76,21.599 23.76,37.979 c0,19.259 -13.859,38.878 -39.599,40.498 l37.618,49.679 h-16.739 l-45.178,-60.298 c16.919,0 22.679,-0.18100000000000002 28.618,-1.979 c14.58,-4.141 21.96,-16.38 21.96,-28.26 c0,-10.439 -5.94,-21.238 -14.58,-25.559 c-7.9190000000000005,-4.14 -14.759,-5.04 -25.919,-5.04 h-23.219 v121.136 h-13.319 V12.388411132812507 z" id="svg_12"/>
		<path fill="#0C456F" d="M664.4902639160157,12.388411132812507 h13.319 v133.195 h-13.319 V12.388411132812507 z" id="svg_13"/>
		<path fill="#0C456F" d="M830.2652639160156,110.66541113281255 c-14.22,26.099 -39.958,37.259 -61.378,37.259 c-37.258,0 -69.657,-29.34 -69.657,-68.758 s31.499,-68.938 69.478,-68.938 c34.198,0 55.798,23.939 61.018,36.359 h-14.939 c-14.579,-21.779 -38.158,-24.299 -46.258,-24.299 c-31.139,0 -55.978,27.358 -55.978,57.057 c0,31.139 27.358,56.518 56.157,56.518 c6.66,0 28.438,-0.8990000000000001 46.618,-25.198 H830.2652639160156 z" id="svg_14"/>
	</g>
	<g id="tagline">
		<path fill="#21A8C8" d="M267.8732639160156,163.04341113281248 h4.532 c2.244,0 3.301,0.35200000000000004 4.203,0.9450000000000001 c1.21,0.8140000000000001 2.024,2.201 2.024,3.918 c0,1.715 -0.8140000000000001,3.102 -2.024,3.916 c-0.902,0.5940000000000001 -1.959,0.9450000000000001 -4.203,0.9450000000000001 h-2.904 v6.558 h-1.6280000000000001 V163.04341113281248 zM269.50126391601566,171.29441113281246 h2.354 c1.738,0 2.332,0 3.257,-0.41800000000000004 c1.275,-0.5950000000000001 1.8920000000000001,-1.738 1.8920000000000001,-2.9699999999999998 c0,-1.232 -0.6160000000000001,-2.3770000000000002 -1.8920000000000001,-2.971 c-0.925,-0.41800000000000004 -1.5190000000000001,-0.41800000000000004 -3.257,-0.41800000000000004 h-2.354 V171.29441113281246 z" id="svg_15"/>
		<path fill="#21A8C8" d="M287.6292639160156,163.04341113281248 h1.826 l6.997,16.282 h-1.782 l-2.354,-5.479 h-7.568 l-2.3770000000000002,5.479 h-1.6940000000000002 L287.6292639160156,163.04341113281248 zM285.3632639160156,172.37241113281254 h6.314 l-3.124,-7.481 L285.3632639160156,172.37241113281254 z" id="svg_16"/>
		<path fill="#21A8C8" d="M301.7312639160157,164.51741113281253 h-3.74 v-1.475 h9.088 v1.475 h-3.7190000000000003 v14.808 h-1.629 V164.51741113281253 z" id="svg_17"/>
		<path fill="#21A8C8" d="M310.06826391601567,163.04341113281248 h1.629 v7.173 h8.427 v-7.173 h1.6280000000000001 v16.282 h-1.6280000000000001 v-7.636 h-8.427 v7.636 h-1.629 V163.04341113281248 z" id="svg_18"/>
		<path fill="#21A8C8" d="M334.1382639160156,162.75741113281254 c4.5760000000000005,0 8.625,3.63 8.625,8.427 s-4.07,8.428 -8.625,8.428 c-4.621,0 -8.604,-3.763 -8.604,-8.34 C325.5342639160157,166.14541113281246 329.8032639160157,162.75741113281254 334.1382639160156,162.75741113281254 zM334.1382639160156,178.13641113281255 c3.762,0 6.997,-3.059 6.997,-6.931 c0,-3.807 -3.146,-6.976 -6.997,-6.976 c-3.6750000000000003,0 -6.976,2.993 -6.976,7.041 C327.1622639160156,174.99041113281248 330.35326391601564,178.13641113281255 334.1382639160156,178.13641113281255 z" id="svg_19"/>
		<path fill="#21A8C8" d="M346.9852639160156,174.77041113281246 c0.08800000000000002,2.046 1.3860000000000001,3.366 3.3890000000000002,3.366 c1.7160000000000002,0 3.278,-1.32 3.278,-3.234 c0,-2.508 -2.5300000000000002,-3.146 -3.6310000000000002,-3.477 c-1.474,-0.43900000000000006 -4.225,-1.056 -4.225,-4.291 c0,-2.529 2.003,-4.378 4.577,-4.378 c2.662,0 4.511,2.046 4.511,4.423 h-1.629 c0,-1.6500000000000001 -1.342,-2.949 -2.882,-2.949 c-1.87,0 -2.948,1.431 -2.948,2.839 c0,1.98 1.738,2.442 3.872,3.059 c4.005,1.078 3.982,4.225 3.982,4.708 c0,2.509 -2.024,4.775 -4.906,4.775 c-2.112,0 -4.9510000000000005,-1.254 -5.017,-4.841 H346.9852639160156 z" id="svg_20"/>
		<path fill="#21A8C8" d="M362.67026391601564,173.89041113281246 l-5.654,-10.848 h1.804 l4.643,9.131 l4.774,-9.131 h1.783 l-5.722,10.848 v5.4350000000000005 h-1.6280000000000001 V173.89041113281246 z" id="svg_21"/>
		<path fill="#21A8C8" d="M373.2962639160156,174.77041113281246 c0.08800000000000002,2.046 1.3860000000000001,3.366 3.3890000000000002,3.366 c1.7160000000000002,0 3.278,-1.32 3.278,-3.234 c0,-2.508 -2.5300000000000002,-3.146 -3.6310000000000002,-3.477 c-1.474,-0.43900000000000006 -4.225,-1.056 -4.225,-4.291 c0,-2.529 2.003,-4.378 4.577,-4.378 c2.662,0 4.511,2.046 4.511,4.423 h-1.629 c0,-1.6500000000000001 -1.342,-2.949 -2.882,-2.949 c-1.87,0 -2.948,1.431 -2.948,2.839 c0,1.98 1.738,2.442 3.872,3.059 c4.005,1.078 3.982,4.225 3.982,4.708 c0,2.509 -2.024,4.775 -4.906,4.775 c-2.112,0 -4.9510000000000005,-1.254 -5.017,-4.841 H373.2962639160156 z" id="svg_22"/>
		<path fill="#21A8C8" d="M387.1782639160157,164.51741113281253 h-3.74 v-1.475 h9.088 v1.475 h-3.7190000000000003 v14.808 h-1.629 V164.51741113281253 z" id="svg_23"/>
		<path fill="#21A8C8" d="M395.3832639160156,163.04341113281248 h8.911 v1.475 h-7.282 v5.853 h7.041 v1.474 h-7.041 v6.008 h7.282 v1.474 h-8.911 V163.04341113281248 z" id="svg_24"/>
		<path fill="#21A8C8" d="M408.47326391601564,163.04341113281248 h2.509 l5.9190000000000005,13.861 l5.94,-13.861 h2.509 v16.282 h-1.6280000000000001 v-14.5 h-0.04500000000000001 l-6.095,14.5 h-1.3860000000000001 l-6.051,-14.5 h-0.04400000000000001 v14.5 h-1.629 V163.04341113281248 z" id="svg_25"/>
		<path fill="#21A8C8" d="M430.2972639160156,174.77041113281246 c0.08800000000000002,2.046 1.3860000000000001,3.366 3.3890000000000002,3.366 c1.7160000000000002,0 3.278,-1.32 3.278,-3.234 c0,-2.508 -2.5300000000000002,-3.146 -3.6310000000000002,-3.477 c-1.474,-0.43900000000000006 -4.225,-1.056 -4.225,-4.291 c0,-2.529 2.003,-4.378 4.577,-4.378 c2.662,0 4.511,2.046 4.511,4.423 h-1.629 c0,-1.6500000000000001 -1.342,-2.949 -2.882,-2.949 c-1.87,0 -2.948,1.431 -2.948,2.839 c0,1.98 1.738,2.442 3.872,3.059 c4.005,1.078 3.982,4.225 3.982,4.708 c0,2.509 -2.024,4.775 -4.906,4.775 c-2.112,0 -4.9510000000000005,-1.254 -5.017,-4.841 H430.2972639160156 z" id="svg_26"/>
		<path fill="#21A8C8" d="M449.10726391601565,163.04341113281248 h4.1370000000000005 c2.179,0 3.257,0.264 4.005,0.6160000000000001 c1.826,0.8580000000000001 2.904,2.64 2.904,4.643 c0,2.354 -1.6940000000000002,4.753 -4.841,4.95 l4.599,6.073 h-2.046 l-5.523,-7.371 c2.068,0 2.7720000000000002,-0.022000000000000006 3.499,-0.24200000000000002 c1.782,-0.506 2.685,-2.002 2.685,-3.454 c0,-1.276 -0.7270000000000001,-2.597 -1.782,-3.125 c-0.9690000000000001,-0.506 -1.8050000000000002,-0.6150000000000001 -3.169,-0.6150000000000001 h-2.839 v14.808 h-1.6280000000000001 V163.04341113281248 z" id="svg_27"/>
		<path fill="#21A8C8" d="M463.62626391601566,163.04341113281248 h8.911 v1.475 h-7.283 v5.853 h7.041 v1.474 h-7.041 v6.008 h7.283 v1.474 h-8.911 V163.04341113281248 z" id="svg_28"/>
		<path fill="#21A8C8" d="M477.15626391601563,174.77041113281246 c0.08800000000000002,2.046 1.3860000000000001,3.366 3.3890000000000002,3.366 c1.7160000000000002,0 3.278,-1.32 3.278,-3.234 c0,-2.508 -2.5300000000000002,-3.146 -3.6310000000000002,-3.477 c-1.474,-0.43900000000000006 -4.225,-1.056 -4.225,-4.291 c0,-2.529 2.003,-4.378 4.577,-4.378 c2.662,0 4.511,2.046 4.511,4.423 h-1.629 c0,-1.6500000000000001 -1.342,-2.949 -2.882,-2.949 c-1.87,0 -2.948,1.431 -2.948,2.839 c0,1.98 1.738,2.442 3.872,3.059 c4.005,1.078 3.982,4.225 3.982,4.708 c0,2.509 -2.024,4.775 -4.906,4.775 c-2.112,0 -4.9510000000000005,-1.254 -5.017,-4.841 H477.15626391601563 z" id="svg_29"/>
		<path fill="#21A8C8" d="M496.7162639160156,162.75741113281254 c4.5760000000000005,0 8.625,3.63 8.625,8.427 s-4.07,8.428 -8.625,8.428 c-4.621,0 -8.604,-3.763 -8.604,-8.34 C488.11226391601565,166.14541113281246 492.38126391601566,162.75741113281254 496.7162639160156,162.75741113281254 zM496.7162639160156,178.13641113281255 c3.762,0 6.997,-3.059 6.997,-6.931 c0,-3.807 -3.146,-6.976 -6.997,-6.976 c-3.6750000000000003,0 -6.976,2.993 -6.976,7.041 C489.7402639160156,174.99041113281248 492.9312639160156,178.13641113281255 496.7162639160156,178.13641113281255 z" id="svg_30"/>
		<path fill="#21A8C8" d="M510.72826391601564,163.04341113281248 v10.144 c0,1.188 0.17600000000000002,2.267 0.55,2.948 c0.99,1.826 2.597,2.002 3.367,2.002 c0.77,0 2.376,-0.17600000000000002 3.366,-2.002 c0.37400000000000005,-0.6820000000000002 0.55,-1.7600000000000002 0.55,-2.948 v-10.144 h1.629 v10.144 c0,1.364 -0.22100000000000003,2.5300000000000002 -0.6160000000000001,3.388 c-1.122,2.443 -3.411,3.037 -4.929,3.037 c-1.5190000000000001,0 -3.807,-0.5940000000000001 -4.929,-3.037 c-0.3960000000000001,-0.8570000000000001 -0.6160000000000001,-2.023 -0.6160000000000001,-3.388 v-10.144 H510.72826391601564 z" id="svg_31"/>
		<path fill="#21A8C8" d="M524.5662639160156,163.04341113281248 h4.1370000000000005 c2.179,0 3.257,0.264 4.005,0.6160000000000001 c1.826,0.8580000000000001 2.904,2.64 2.904,4.643 c0,2.354 -1.6940000000000002,4.753 -4.841,4.95 l4.599,6.073 h-2.046 l-5.523,-7.371 c2.068,0 2.7720000000000002,-0.022000000000000006 3.499,-0.24200000000000002 c1.782,-0.506 2.685,-2.002 2.685,-3.454 c0,-1.276 -0.7270000000000001,-2.597 -1.782,-3.125 c-0.9690000000000001,-0.506 -1.8050000000000002,-0.6150000000000001 -3.169,-0.6150000000000001 h-2.839 v14.808 h-1.6280000000000001 V163.04341113281248 z" id="svg_32"/>
		<path fill="#21A8C8" d="M554.5102639160157,175.0564111328125 c-1.738,3.19 -4.885,4.555 -7.504,4.555 c-4.555,0 -8.515,-3.5860000000000003 -8.515,-8.405 s3.851,-8.427 8.493,-8.427 c4.181,0 6.821,2.926 7.459,4.444 h-1.826 c-1.782,-2.6630000000000003 -4.665,-2.971 -5.655,-2.971 c-3.807,0 -6.843,3.345 -6.843,6.976 c0,3.807 3.345,6.908 6.865,6.908 c0.8140000000000001,0 3.477,-0.10900000000000001 5.699,-3.08 H554.5102639160157 z" id="svg_33"/>
		<path fill="#21A8C8" d="M558.1372639160156,163.04341113281248 h8.911 v1.475 h-7.282 v5.853 h7.041 v1.474 h-7.041 v6.008 h7.282 v1.474 h-8.911 V163.04341113281248 z" id="svg_34"/>
		<path fill="#21A8C8" d="M578.4862639160157,163.04341113281248 h1.629 v16.282 h-1.629 V163.04341113281248 z" id="svg_35"/>
		<path fill="#21A8C8" d="M584.6042639160157,163.04341113281248 h2.2 l9.087,13.51 h0.04400000000000001 v-13.51 h1.629 v16.282 h-1.629 l-9.659,-14.324 h-0.04400000000000001 v14.324 h-1.6280000000000001 V163.04341113281248 z" id="svg_36"/>
		<path fill="#21A8C8" d="M604.2722639160156,164.51741113281253 h-3.741 v-1.475 h9.088 v1.475 h-3.7190000000000003 v14.808 h-1.6280000000000001 V164.51741113281253 z" id="svg_37"/>
		<path fill="#21A8C8" d="M612.4772639160155,163.04341113281248 h8.911 v1.475 h-7.282 v5.853 h7.041 v1.474 h-7.041 v6.008 h7.282 v1.474 h-8.911 V163.04341113281248 z" id="svg_38"/>
		<path fill="#21A8C8" d="M642.1132639160155,171.84341113281255 c-0.37400000000000005,4.841 -4.599,7.768 -8.604,7.768 c-4.862,0 -8.735,-3.938 -8.735,-8.428 c0,-4.225 3.499,-8.427 8.714,-8.427 c4.312,0 7.062,2.9699999999999998 7.7010000000000005,4.62 h-1.8930000000000002 c-0.924,-1.605 -3.08,-3.146 -5.787,-3.146 c-4.114,0 -7.106,3.346 -7.106,6.976 s2.992,6.931 7.173,6.931 c3.454,0 6.007,-2.553 6.579,-4.818 h-9.088 v-1.475 H642.1132639160155 z" id="svg_39"/>
		<path fill="#21A8C8" d="M645.7842639160156,163.04341113281248 h4.1370000000000005 c2.179,0 3.257,0.264 4.005,0.6160000000000001 c1.826,0.8580000000000001 2.904,2.64 2.904,4.643 c0,2.354 -1.6940000000000002,4.753 -4.841,4.95 l4.599,6.073 h-2.046 l-5.523,-7.371 c2.068,0 2.7720000000000002,-0.022000000000000006 3.499,-0.24200000000000002 c1.782,-0.506 2.685,-2.002 2.685,-3.454 c0,-1.276 -0.7270000000000001,-2.597 -1.782,-3.125 c-0.9690000000000001,-0.506 -1.8050000000000002,-0.6150000000000001 -3.169,-0.6150000000000001 h-2.839 v14.808 h-1.6280000000000001 V163.04341113281248 z" id="svg_40"/>
		<path fill="#21A8C8" d="M665.9812639160157,163.04341113281248 h1.826 l6.997,16.282 h-1.782 l-2.354,-5.479 h-7.568 l-2.3770000000000002,5.479 h-1.6940000000000002 L665.9812639160157,163.04341113281248 zM663.7152639160156,172.37241113281254 h6.314 l-3.124,-7.481 L663.7152639160156,172.37241113281254 z" id="svg_41"/>
		<path fill="#21A8C8" d="M680.0822639160156,164.51741113281253 h-3.74 v-1.475 h9.088 v1.475 h-3.7190000000000003 v14.808 h-1.629 V164.51741113281253 z" id="svg_42"/>
		<path fill="#21A8C8" d="M688.4202639160155,163.04341113281248 h1.629 v16.282 h-1.629 V163.04341113281248 z" id="svg_43"/>
		<path fill="#21A8C8" d="M702.4362639160156,162.75741113281254 c4.5760000000000005,0 8.625,3.63 8.625,8.427 s-4.07,8.428 -8.625,8.428 c-4.621,0 -8.604,-3.763 -8.604,-8.34 C693.8322639160156,166.14541113281246 698.1012639160156,162.75741113281254 702.4362639160156,162.75741113281254 zM702.4362639160156,178.13641113281255 c3.762,0 6.996,-3.059 6.996,-6.931 c0,-3.807 -3.146,-6.976 -6.996,-6.976 c-3.6750000000000003,0 -6.976,2.993 -6.976,7.041 C695.4602639160157,174.99041113281248 698.6512639160155,178.13641113281255 702.4362639160156,178.13641113281255 z" id="svg_44"/>
		<path fill="#21A8C8" d="M714.8202639160156,163.04341113281248 h2.2 l9.087,13.51 h0.04400000000000001 v-13.51 h1.629 v16.282 h-1.629 l-9.659,-14.324 h-0.04400000000000001 v14.324 h-1.6280000000000001 V163.04341113281248 z" id="svg_45"/>
		<path fill="#21A8C8" d="M754.8402639160156,175.0564111328125 c-1.738,3.19 -4.885,4.555 -7.504,4.555 c-4.555,0 -8.515,-3.5860000000000003 -8.515,-8.405 s3.851,-8.427 8.493,-8.427 c4.181,0 6.821,2.926 7.459,4.444 h-1.826 c-1.782,-2.6630000000000003 -4.665,-2.971 -5.655,-2.971 c-3.807,0 -6.843,3.345 -6.843,6.976 c0,3.807 3.345,6.908 6.865,6.908 c0.8140000000000001,0 3.477,-0.10900000000000001 5.699,-3.08 H754.8402639160156 z" id="svg_46"/>
		<path fill="#21A8C8" d="M758.4672639160156,163.04341113281248 h8.911 v1.475 h-7.282 v5.853 h7.041 v1.474 h-7.041 v6.008 h7.282 v1.474 h-8.911 V163.04341113281248 z" id="svg_47"/>
		<path fill="#21A8C8" d="M771.5352639160155,163.04341113281248 h2.2 l9.087,13.51 h0.04400000000000001 v-13.51 h1.629 v16.282 h-1.629 l-9.659,-14.324 h-0.04400000000000001 v14.324 h-1.6280000000000001 V163.04341113281248 z" id="svg_48"/>
		<path fill="#21A8C8" d="M791.2032639160157,164.51741113281253 h-3.741 v-1.475 h9.088 v1.475 h-3.7190000000000003 v14.808 h-1.6280000000000001 V164.51741113281253 z" id="svg_49"/>
		<path fill="#21A8C8" d="M799.4082639160156,163.04341113281248 h8.911 v1.475 h-7.282 v5.853 h7.041 v1.474 h-7.041 v6.008 h7.282 v1.474 h-8.911 V163.04341113281248 z" id="svg_50"/>
		<path fill="#21A8C8" d="M812.3662639160157,163.04341113281248 h4.1370000000000005 c2.179,0 3.257,0.264 4.005,0.6160000000000001 c1.826,0.8580000000000001 2.904,2.64 2.904,4.643 c0,2.354 -1.6940000000000002,4.753 -4.841,4.95 l4.599,6.073 h-2.046 l-5.523,-7.371 c2.068,0 2.7720000000000002,-0.022000000000000006 3.499,-0.24200000000000002 c1.782,-0.506 2.685,-2.002 2.685,-3.454 c0,-1.276 -0.7270000000000001,-2.597 -1.782,-3.125 c-0.9690000000000001,-0.506 -1.8050000000000002,-0.6150000000000001 -3.169,-0.6150000000000001 h-2.839 v14.808 h-1.6280000000000001 V163.04341113281248 z" id="svg_51"/>
	</g>
</g><g id="Black_and_White" display="none">
	<g id="PATRIC_and_tagline" display="inline">
		<path d="M711.465,929.817h37.079c18.359,0,26.999,2.88,34.379,7.74c9.899,6.659,16.559,17.999,16.559,32.039    c0,14.039-6.659,25.379-16.559,32.038c-7.38,4.86-16.02,7.739-34.379,7.739h-23.759v53.639h-13.32V929.817z M724.785,997.315    h19.259c14.22,0,19.079,0,26.639-3.42c10.439-4.86,15.479-14.22,15.479-24.299c0-10.08-5.04-19.439-15.479-24.3    c-7.56-3.42-12.419-3.42-26.639-3.42h-19.259V997.315z" id="svg_52"/>
		<path d="M843.085,929.817h14.938l57.238,133.195h-14.579l-19.26-44.818h-61.917l-19.439,44.818h-13.859L843.085,929.817z     M824.545,1006.135h51.658l-25.559-61.198L824.545,1006.135z" id="svg_53"/>
		<path d="M940.838,941.877h-30.599v-12.06h74.337v12.06h-30.419v121.136h-13.319V941.877z" id="svg_54"/>
		<path d="M998.438,929.817h33.839c17.819,0,26.639,2.16,32.758,5.04c14.939,7.02,23.76,21.599,23.76,37.979    c0,19.259-13.859,38.878-39.599,40.498l37.618,49.679h-16.739l-45.178-60.298c16.919,0,22.679-0.181,28.618-1.979    c14.58-4.141,21.96-16.38,21.96-28.26c0-10.439-5.94-21.238-14.58-25.559c-7.919-4.14-14.759-5.04-25.919-5.04h-23.219v121.136    h-13.319V929.817z" id="svg_55"/>
		<path d="M1108.776,929.817h13.319v133.195h-13.319V929.817z" id="svg_56"/>
		<path d="M1274.551,1028.094c-14.22,26.099-39.958,37.259-61.378,37.259c-37.258,0-69.657-29.34-69.657-68.758    s31.499-68.938,69.478-68.938c34.198,0,55.798,23.939,61.018,36.359h-14.939c-14.579-21.779-38.158-24.299-46.258-24.299    c-31.139,0-55.978,27.358-55.978,57.057c0,31.139,27.358,56.518,56.157,56.518c6.66,0,28.438-0.899,46.618-25.198H1274.551z" id="svg_57"/>
		<path fill="#6D6F71" d="M712.159,1080.472h4.532c2.244,0,3.301,0.352,4.203,0.945c1.21,0.814,2.024,2.201,2.024,3.918    c0,1.715-0.814,3.102-2.024,3.916c-0.902,0.594-1.959,0.945-4.203,0.945h-2.904v6.558h-1.628V1080.472z M713.787,1088.723h2.354    c1.738,0,2.332,0,3.257-0.418c1.275-0.595,1.892-1.738,1.892-2.97c0-1.232-0.616-2.377-1.892-2.971    c-0.925-0.418-1.519-0.418-3.257-0.418h-2.354V1088.723z" id="svg_58"/>
		<path fill="#6D6F71" d="M731.915,1080.472h1.826l6.997,16.282h-1.782l-2.354-5.479h-7.568l-2.377,5.479h-1.694L731.915,1080.472z     M729.649,1089.801h6.314l-3.124-7.481L729.649,1089.801z" id="svg_59"/>
		<path fill="#6D6F71" d="M746.017,1081.946h-3.74v-1.475h9.088v1.475h-3.719v14.808h-1.629V1081.946z" id="svg_60"/>
		<path fill="#6D6F71" d="M754.354,1080.472h1.629v7.173h8.427v-7.173h1.628v16.282h-1.628v-7.636h-8.427v7.636h-1.629V1080.472z" id="svg_61"/>
		<path fill="#6D6F71" d="M778.424,1080.186c4.576,0,8.625,3.63,8.625,8.427s-4.07,8.428-8.625,8.428    c-4.621,0-8.604-3.763-8.604-8.34C769.82,1083.574,774.089,1080.186,778.424,1080.186z M778.424,1095.565    c3.762,0,6.997-3.059,6.997-6.931c0-3.807-3.146-6.976-6.997-6.976c-3.675,0-6.976,2.993-6.976,7.041    C771.448,1092.419,774.639,1095.565,778.424,1095.565z" id="svg_62"/>
		<path fill="#6D6F71" d="M791.271,1092.199c0.088,2.046,1.386,3.366,3.389,3.366c1.716,0,3.278-1.32,3.278-3.234    c0-2.508-2.53-3.146-3.631-3.477c-1.474-0.439-4.225-1.056-4.225-4.291c0-2.529,2.003-4.378,4.577-4.378    c2.662,0,4.511,2.046,4.511,4.423h-1.629c0-1.65-1.342-2.949-2.882-2.949c-1.87,0-2.948,1.431-2.948,2.839    c0,1.98,1.738,2.442,3.872,3.059c4.005,1.078,3.982,4.225,3.982,4.708c0,2.509-2.024,4.775-4.906,4.775    c-2.112,0-4.951-1.254-5.017-4.841H791.271z" id="svg_63"/>
		<path fill="#6D6F71" d="M806.956,1091.319l-5.654-10.848h1.804l4.643,9.131l4.774-9.131h1.783l-5.722,10.848v5.435h-1.628    V1091.319z" id="svg_64"/>
		<path fill="#6D6F71" d="M817.582,1092.199c0.088,2.046,1.386,3.366,3.389,3.366c1.716,0,3.278-1.32,3.278-3.234    c0-2.508-2.53-3.146-3.631-3.477c-1.474-0.439-4.225-1.056-4.225-4.291c0-2.529,2.003-4.378,4.577-4.378    c2.662,0,4.511,2.046,4.511,4.423h-1.629c0-1.65-1.342-2.949-2.882-2.949c-1.87,0-2.948,1.431-2.948,2.839    c0,1.98,1.738,2.442,3.872,3.059c4.005,1.078,3.982,4.225,3.982,4.708c0,2.509-2.024,4.775-4.906,4.775    c-2.112,0-4.951-1.254-5.017-4.841H817.582z" id="svg_65"/>
		<path fill="#6D6F71" d="M831.464,1081.946h-3.74v-1.475h9.088v1.475h-3.719v14.808h-1.629V1081.946z" id="svg_66"/>
		<path fill="#6D6F71" d="M839.669,1080.472h8.911v1.475h-7.282v5.853h7.041v1.474h-7.041v6.008h7.282v1.474h-8.911V1080.472z" id="svg_67"/>
		<path fill="#6D6F71" d="M852.759,1080.472h2.509l5.919,13.861l5.94-13.861h2.509v16.282h-1.628v-14.5h-0.045l-6.095,14.5h-1.386    l-6.051-14.5h-0.044v14.5h-1.629V1080.472z" id="svg_68"/>
		<path fill="#6D6F71" d="M874.583,1092.199c0.088,2.046,1.386,3.366,3.389,3.366c1.716,0,3.278-1.32,3.278-3.234    c0-2.508-2.53-3.146-3.631-3.477c-1.474-0.439-4.225-1.056-4.225-4.291c0-2.529,2.003-4.378,4.577-4.378    c2.662,0,4.511,2.046,4.511,4.423h-1.629c0-1.65-1.342-2.949-2.882-2.949c-1.87,0-2.948,1.431-2.948,2.839    c0,1.98,1.738,2.442,3.872,3.059c4.005,1.078,3.982,4.225,3.982,4.708c0,2.509-2.024,4.775-4.906,4.775    c-2.112,0-4.951-1.254-5.017-4.841H874.583z" id="svg_69"/>
		<path fill="#6D6F71" d="M893.393,1080.472h4.137c2.179,0,3.257,0.264,4.005,0.616c1.826,0.858,2.904,2.64,2.904,4.643    c0,2.354-1.694,4.753-4.841,4.95l4.599,6.073h-2.046l-5.523-7.371c2.068,0,2.772-0.022,3.499-0.242    c1.782-0.506,2.685-2.002,2.685-3.454c0-1.276-0.727-2.597-1.782-3.125c-0.969-0.506-1.805-0.615-3.169-0.615h-2.839v14.808    h-1.628V1080.472z" id="svg_70"/>
		<path fill="#6D6F71" d="M907.912,1080.472h8.911v1.475h-7.283v5.853h7.041v1.474h-7.041v6.008h7.283v1.474h-8.911V1080.472z" id="svg_71"/>
		<path fill="#6D6F71" d="M921.442,1092.199c0.088,2.046,1.386,3.366,3.389,3.366c1.716,0,3.278-1.32,3.278-3.234    c0-2.508-2.53-3.146-3.631-3.477c-1.474-0.439-4.225-1.056-4.225-4.291c0-2.529,2.003-4.378,4.577-4.378    c2.662,0,4.511,2.046,4.511,4.423h-1.629c0-1.65-1.342-2.949-2.882-2.949c-1.87,0-2.948,1.431-2.948,2.839    c0,1.98,1.738,2.442,3.872,3.059c4.005,1.078,3.982,4.225,3.982,4.708c0,2.509-2.024,4.775-4.906,4.775    c-2.112,0-4.951-1.254-5.017-4.841H921.442z" id="svg_72"/>
		<path fill="#6D6F71" d="M941.002,1080.186c4.576,0,8.625,3.63,8.625,8.427s-4.07,8.428-8.625,8.428    c-4.621,0-8.604-3.763-8.604-8.34C932.398,1083.574,936.667,1080.186,941.002,1080.186z M941.002,1095.565    c3.762,0,6.997-3.059,6.997-6.931c0-3.807-3.146-6.976-6.997-6.976c-3.675,0-6.976,2.993-6.976,7.041    C934.026,1092.419,937.217,1095.565,941.002,1095.565z" id="svg_73"/>
		<path fill="#6D6F71" d="M955.014,1080.472v10.144c0,1.188,0.176,2.267,0.55,2.948c0.99,1.826,2.597,2.002,3.367,2.002    c0.77,0,2.376-0.176,3.366-2.002c0.374-0.682,0.55-1.76,0.55-2.948v-10.144h1.629v10.144c0,1.364-0.221,2.53-0.616,3.388    c-1.122,2.443-3.411,3.037-4.929,3.037c-1.519,0-3.807-0.594-4.929-3.037c-0.396-0.857-0.616-2.023-0.616-3.388v-10.144H955.014z" id="svg_74"/>
		<path fill="#6D6F71" d="M968.852,1080.472h4.137c2.179,0,3.257,0.264,4.005,0.616c1.826,0.858,2.904,2.64,2.904,4.643    c0,2.354-1.694,4.753-4.841,4.95l4.599,6.073h-2.046l-5.523-7.371c2.068,0,2.772-0.022,3.499-0.242    c1.782-0.506,2.685-2.002,2.685-3.454c0-1.276-0.727-2.597-1.782-3.125c-0.969-0.506-1.805-0.615-3.169-0.615h-2.839v14.808    h-1.628V1080.472z" id="svg_75"/>
		<path fill="#6D6F71" d="M998.796,1092.485c-1.738,3.19-4.885,4.555-7.504,4.555c-4.555,0-8.515-3.586-8.515-8.405    s3.851-8.427,8.493-8.427c4.181,0,6.821,2.926,7.459,4.444h-1.826c-1.782-2.663-4.665-2.971-5.655-2.971    c-3.807,0-6.843,3.345-6.843,6.976c0,3.807,3.345,6.908,6.865,6.908c0.814,0,3.477-0.109,5.699-3.08H998.796z" id="svg_76"/>
		<path fill="#6D6F71" d="M1002.423,1080.472h8.911v1.475h-7.282v5.853h7.041v1.474h-7.041v6.008h7.282v1.474h-8.911V1080.472z" id="svg_77"/>
		<path fill="#6D6F71" d="M1022.772,1080.472h1.629v16.282h-1.629V1080.472z" id="svg_78"/>
		<path fill="#6D6F71" d="M1028.89,1080.472h2.2l9.087,13.51h0.044v-13.51h1.629v16.282h-1.629l-9.659-14.324h-0.044v14.324h-1.628    V1080.472z" id="svg_79"/>
		<path fill="#6D6F71" d="M1048.558,1081.946h-3.741v-1.475h9.088v1.475h-3.719v14.808h-1.628V1081.946z" id="svg_80"/>
		<path fill="#6D6F71" d="M1056.763,1080.472h8.911v1.475h-7.282v5.853h7.041v1.474h-7.041v6.008h7.282v1.474h-8.911V1080.472z" id="svg_81"/>
		<path fill="#6D6F71" d="M1086.399,1089.272c-0.374,4.841-4.599,7.768-8.604,7.768c-4.862,0-8.735-3.938-8.735-8.428    c0-4.225,3.499-8.427,8.714-8.427c4.312,0,7.062,2.97,7.701,4.62h-1.893c-0.924-1.605-3.08-3.146-5.787-3.146    c-4.114,0-7.106,3.346-7.106,6.976s2.992,6.931,7.173,6.931c3.454,0,6.007-2.553,6.579-4.818h-9.088v-1.475H1086.399z" id="svg_82"/>
		<path fill="#6D6F71" d="M1090.07,1080.472h4.137c2.179,0,3.257,0.264,4.005,0.616c1.826,0.858,2.904,2.64,2.904,4.643    c0,2.354-1.694,4.753-4.841,4.95l4.599,6.073h-2.046l-5.523-7.371c2.068,0,2.772-0.022,3.499-0.242    c1.782-0.506,2.685-2.002,2.685-3.454c0-1.276-0.727-2.597-1.782-3.125c-0.969-0.506-1.805-0.615-3.169-0.615h-2.839v14.808    h-1.628V1080.472z" id="svg_83"/>
		<path fill="#6D6F71" d="M1110.267,1080.472h1.826l6.997,16.282h-1.782l-2.354-5.479h-7.568l-2.377,5.479h-1.694L1110.267,1080.472    z M1108.001,1089.801h6.314l-3.124-7.481L1108.001,1089.801z" id="svg_84"/>
		<path fill="#6D6F71" d="M1124.368,1081.946h-3.74v-1.475h9.088v1.475h-3.719v14.808h-1.629V1081.946z" id="svg_85"/>
		<path fill="#6D6F71" d="M1132.706,1080.472h1.629v16.282h-1.629V1080.472z" id="svg_86"/>
		<path fill="#6D6F71" d="M1146.722,1080.186c4.576,0,8.625,3.63,8.625,8.427s-4.07,8.428-8.625,8.428    c-4.621,0-8.604-3.763-8.604-8.34C1138.118,1083.574,1142.387,1080.186,1146.722,1080.186z M1146.722,1095.565    c3.762,0,6.996-3.059,6.996-6.931c0-3.807-3.146-6.976-6.996-6.976c-3.675,0-6.976,2.993-6.976,7.041    C1139.746,1092.419,1142.937,1095.565,1146.722,1095.565z" id="svg_87"/>
		<path fill="#6D6F71" d="M1159.106,1080.472h2.2l9.087,13.51h0.044v-13.51h1.629v16.282h-1.629l-9.659-14.324h-0.044v14.324h-1.628    V1080.472z" id="svg_88"/>
		<path fill="#6D6F71" d="M1199.126,1092.485c-1.738,3.19-4.885,4.555-7.504,4.555c-4.555,0-8.515-3.586-8.515-8.405    s3.851-8.427,8.493-8.427c4.181,0,6.821,2.926,7.459,4.444h-1.826c-1.782-2.663-4.665-2.971-5.655-2.971    c-3.807,0-6.843,3.345-6.843,6.976c0,3.807,3.345,6.908,6.865,6.908c0.814,0,3.477-0.109,5.699-3.08H1199.126z" id="svg_89"/>
		<path fill="#6D6F71" d="M1202.753,1080.472h8.911v1.475h-7.282v5.853h7.041v1.474h-7.041v6.008h7.282v1.474h-8.911V1080.472z" id="svg_90"/>
		<path fill="#6D6F71" d="M1215.821,1080.472h2.2l9.087,13.51h0.044v-13.51h1.629v16.282h-1.629l-9.659-14.324h-0.044v14.324h-1.628    V1080.472z" id="svg_91"/>
		<path fill="#6D6F71" d="M1235.489,1081.946h-3.741v-1.475h9.088v1.475h-3.719v14.808h-1.628V1081.946z" id="svg_92"/>
		<path fill="#6D6F71" d="M1243.694,1080.472h8.911v1.475h-7.282v5.853h7.041v1.474h-7.041v6.008h7.282v1.474h-8.911V1080.472z" id="svg_93"/>
		<path fill="#6D6F71" d="M1256.652,1080.472h4.137c2.179,0,3.257,0.264,4.005,0.616c1.826,0.858,2.904,2.64,2.904,4.643    c0,2.354-1.694,4.753-4.841,4.95l4.599,6.073h-2.046l-5.523-7.371c2.068,0,2.772-0.022,3.499-0.242    c1.782-0.506,2.685-2.002,2.685-3.454c0-1.276-0.727-2.597-1.782-3.125c-0.969-0.506-1.805-0.615-3.169-0.615h-2.839v14.808    h-1.628V1080.472z" id="svg_94"/>
	</g>
	
		<linearGradient id="Bacteria__x3C_Path_x3E__3_" x1="1.000000272112694" y1="0.5000010430146182" x2="0.0000013605634691973874" y2="0.5000010430146182">
		<stop offset="0" style="stop-color:#6D6F71"/>
		<stop offset="1" style="stop-color:#000000"/>
	</linearGradient>
	<path id="Bacteria__x3C_Path_x3E_" display="inline" fill="url(#Bacteria__x3C_Path_x3E__3_)" d="M631.312,959.503   c26.381,0,47.768,19.649,47.768,43.888l0,0c0,24.238-21.387,43.889-47.768,43.889H502.548c-26.382,0-47.769-19.65-47.769-43.889   l0,0c0-24.238,21.387-43.888,47.769-43.888H631.312z"/>
	<g id="Ext._flagellum__x3C_Group_x3E_" display="inline">
		<linearGradient id="SVGID_4_" x1="-0.0000010706595538163965" y1="0.4999836735693455" x2="1.0000021413191076" y2="0.4999836735693455">
			<stop offset="0.227" style="stop-color:#6D6F71"/>
			<stop offset="1" style="stop-color:#6D6F71;stop-opacity:0"/>
		</linearGradient>
		<path fill="url(#SVGID_4_)" d="M857.29,1032.632c-17.111,0-38.085-4.453-63.567-16.897    c-64.163-31.335-120.373-8.237-120.932-7.999c-0.708,0.298-1.521-0.032-1.82-0.738s0.032-1.521,0.738-1.82    c0.586-0.248,14.609-6.094,36.906-8.079c20.558-1.832,52.219-0.516,86.326,16.141c72.64,35.474,107.623,4.71,120.793-6.871    c1.01-0.888,1.904-1.675,2.692-2.328c0.516-0.429,1.068-0.893,1.656-1.387c16.909-14.203,61.819-51.937,149.016-12.117    c0.697,0.319,1.005,1.143,0.687,1.841c-0.319,0.698-1.142,1.004-1.841,0.687c-85.592-39.091-129.532-2.18-146.074,11.717    c-0.594,0.498-1.149,0.965-1.67,1.396c-0.77,0.64-1.645,1.409-2.632,2.276C908.666,1016.281,890.07,1032.631,857.29,1032.632    L857.29,1032.632z" id="svg_95"/>
		<linearGradient id="SVGID_5_" x1="0.0000012735424111175158" y1="0.4999970052886602" x2="0.9999992162815932" y2="0.4999970052886602">
			<stop offset="0.227" style="stop-color:#6D6F71"/>
			<stop offset="1" style="stop-color:#6D6F71;stop-opacity:0"/>
		</linearGradient>
		<path fill="url(#SVGID_5_)" d="M827.38,1007.243c-16.177,0-35.941-2.768-58.727-11.139c-73.662-27.069-136.138,5.314-136.76,5.646    c-0.604,0.318-1.354,0.091-1.677-0.515c-0.32-0.604-0.091-1.355,0.515-1.677c0.158-0.084,16.136-8.464,41.091-13.317    c23.023-4.479,58.658-6.806,97.687,7.535c38.397,14.106,68.022,12.075,86.11,7.885c19.595-4.538,30.26-12.514,30.365-12.594    c0.337-0.225,27.193-17.593,69.128-26.928c38.697-8.616,98.56-11.983,163.974,20.897c70.845,35.612,131.745,14.164,132.352,13.943    c0.642-0.233,1.355,0.097,1.59,0.741c0.234,0.643-0.097,1.354-0.74,1.589c-0.154,0.057-15.745,5.649-39.966,6.683    c-22.318,0.946-56.817-1.874-94.349-20.74c-64.762-32.552-124.017-29.222-162.321-20.692    c-41.498,9.237-67.976,26.359-68.238,26.531c-0.371,0.287-11.024,8.277-31.086,12.951    C848.646,1005.833,838.927,1007.243,827.38,1007.243L827.38,1007.243z" id="svg_96"/>
		<linearGradient id="SVGID_6_" x1="3.486551383457778e-7" y1="0.5000250441469697" x2="0.9999990702529644" y2="0.5000250441469697">
			<stop offset="0.227" style="stop-color:#6D6F71"/>
			<stop offset="1" style="stop-color:#6D6F71;stop-opacity:0"/>
		</linearGradient>
		<path fill="url(#SVGID_6_)" d="M993.345,1034.155c-37.882,0.001-76.617-9.63-104.008-26.572    c-0.229-0.159-16.741-11.693-42.257-17.416c-23.501-5.271-59.688-6.546-98.641,17.307c-39.734,24.332-71.023,22.99-90.278,17.582    c-20.923-5.879-32.243-17.389-32.715-17.875c-0.479-0.496-0.467-1.287,0.028-1.768c0.497-0.479,1.288-0.469,1.768,0.027    c0.111,0.115,11.409,11.571,31.729,17.245c18.752,5.234,49.266,6.476,88.162-17.345c39.709-24.315,76.622-22.988,100.598-17.59    c25.974,5.846,42.819,17.63,42.986,17.748c33.423,20.672,84.159,30.301,129.199,24.488c54.486-7.03,110.944-39.229,128.334-52.838    c0.544-0.424,1.332-0.329,1.755,0.214c0.426,0.544,0.33,1.329-0.214,1.755c-17.56,13.741-74.56,46.253-129.555,53.35    C1011.436,1033.604,1002.411,1034.155,993.345,1034.155L993.345,1034.155z" id="svg_97"/>
	</g>
	<g id="Grey_int._flagellum_x3C_Group_x3E_" display="inline">
		<path fill="#666766" d="M661.842,1037.157c-21.282-8.576-41.841-24.442-65.236-36.75c-37.708-19.838-91.204-3.911-130.615,29.839    l-0.686,0.654c-1.188-1.344-2.906-3.625-3.641-4.797l0.761-0.679c40.502-33.892,96.22-46.627,135.363-25.55    c22.066,11.881,43.571,27.938,66.244,35.433C663.606,1035.781,662.57,1036.525,661.842,1037.157z" id="svg_98"/>
		<path fill="#666766" d="M674.327,1021.814c-29.088,8.17-61.132,7.228-92.952-10.771c-35.757-20.222-63.768-42.555-95.39-48.849    c-5.734,1.935-9.883,4.667-9.883,4.667c35.708,1.093,65.429,22.605,104.864,44.91c31.35,17.73,62.768,20.168,91.551,13.365    C672.751,1025.064,674.877,1022.048,674.327,1021.814z" id="svg_99"/>
	</g>
	<g id="White_int._flagellum__x3C_Group_x3E_" display="inline">
		<path fill="#FFFFFF" d="M671.469,1027.681l-2.643,2.947c-0.333-0.064-0.674-0.134-1.022-0.208    c-27.542-5.854-51.747-25.771-80.925-41.121c-37.318-19.632-90.099-4.237-129.387,28.796c-1.734-4.199-1.822-6.206-1.822-6.206    c40.223-32.063,94.197-43.689,132.392-23.123c27.195,14.645,52.733,34.82,81.833,38.682    C670.283,1027.498,671.106,1027.625,671.469,1027.681z" id="svg_100"/>
		<path fill="#FFFFFF" d="M679.197,1005.504c-33.682,13.43-69.877,15.738-107.549-5.568c-26.061-14.739-48.006-30.599-70.234-40.553    c-5.608-0.106-8.531,0.904-8.531,0.904c25.051,7.648,49.047,23.799,78.357,40.377c38.008,21.498,74.238,20.814,108.432,8.01    C680.636,1008.468,680.636,1005.754,679.197,1005.504z" id="svg_101"/>
	</g>
</g><g id="WORKSHOPS" display="none">
	<text transform="matrix(1.5,0,0,1.25,651.8018,833.001) " id="svg_102"><tspan x="0" y="0" display="inline" fill="#0C456F" font-family="'Arial-Black'" font-size="60" id="svg_103">WORKSHOP</tspan><tspan x="393.252" y="0" display="inline" fill="#0C456F" font-family="'Arial-Black'" font-size="60" letter-spacing="-9.333" id="svg_104">S</tspan></text>
	
		<text transform="matrix(2.6295,0,0,1.25,456.418,839.7178) " display="inline" fill="#0C456F" font-family="'ArialNarrow-Bold'" font-size="63.3305" id="svg_105">WORKSHOP</text>
</g></g></svg>