<svg xmlns="http://www.w3.org/2000/svg" xmlns:xlink="http://www.w3.org/1999/xlink" width="1371" height="164"><g class="container" transform="translate(62,10)"></g><path class="link" d="M10,128.6875L10,100.0625,10,100.0625,41.44024828580898,100.0625" style="stroke-width: 1; stroke: black; fill-opacity: 0;"></path><path class="link" d="M10,128.6875L10,134,10,134,42.31804432461213,134" style="stroke-width: 1; stroke: black; fill-opacity: 0;"></path><path class="link" d="M10,128.6875L10,152,10,152,418.64114491765304,152" style="stroke-width: 1; stroke: black; fill-opacity: 0;"></path><path class="link" d="M41.44024828580898,100.0625L41.44024828580898,84.125,41.44024828580898,84.125,76.00029500332592,84.125" style="stroke-width: 1; stroke: black; fill-opacity: 0;"></path><path class="link" d="M41.44024828580898,100.0625L41.44024828580898,116,41.44024828580898,116,74.97959440442386,116" style="stroke-width: 1; stroke: black; fill-opacity: 0;"></path><path class="link" d="M76.00029500332592,84.125L76.00029500332592,64.25,76.00029500332592,64.25,339.1198823683372,64.25" style="stroke-width: 1; stroke: black; fill-opacity: 0;"></path><path class="link" d="M76.00029500332592,84.125L76.00029500332592,104,76.00029500332592,104,113.68424650710797,104" style="stroke-width: 1; stroke: black; fill-opacity: 0;"></path><path class="link" d="M339.1198823683372,64.25L339.1198823683372,45.5,339.1198823683372,45.5,519.8895115295418,45.5" style="stroke-width: 1; stroke: black; fill-opacity: 0;"></path><path class="link" d="M339.1198823683372,64.25L339.1198823683372,83,339.1198823683372,83,419.12151572295977,83" style="stroke-width: 1; stroke: black; fill-opacity: 0;"></path><path class="link" d="M519.8895115295418,45.5L519.8895115295418,35,519.8895115295418,35,556.781037843561,35" style="stroke-width: 1; stroke: black; fill-opacity: 0;"></path><path class="link" d="M519.8895115295418,45.5L519.8895115295418,56,519.8895115295418,56,564.0175562827966,56" style="stroke-width: 1; stroke: black; fill-opacity: 0;"></path><path class="link" d="M556.781037843561,35L556.781037843561,26,556.781037843561,26,588.3812410864844,26" style="stroke-width: 1; stroke: black; fill-opacity: 0;"></path><path class="link" d="M556.781037843561,35L556.781037843561,44,556.781037843561,44,591.5104052981,44" style="stroke-width: 1; stroke: black; fill-opacity: 0;"></path><path class="link" d="M588.3812410864844,26L588.3812410864844,20,588.3812410864844,20,622.5266903433524,20" style="stroke-width: 1; stroke: black; fill-opacity: 0;"></path><path class="link" d="M588.3812410864844,26L588.3812410864844,32,588.3812410864844,32,625.0924057273054,32" style="stroke-width: 1; stroke: black; fill-opacity: 0;"></path><path class="link" d="M419.12151572295977,83L419.12151572295977,74,419.12151572295977,74,551.5278157540748,74" style="stroke-width: 1; stroke: black; fill-opacity: 0;"></path><path class="link" d="M419.12151572295977,83L419.12151572295977,92,419.12151572295977,92,644.377375336219,92" style="stroke-width: 1; stroke: black; fill-opacity: 0;"></path><path class="link" d="M551.5278157540748,74L551.5278157540748,68,551.5278157540748,68,825.0869382597664,68" style="stroke-width: 1; stroke: black; fill-opacity: 0;"></path><path class="link" d="M551.5278157540748,74L551.5278157540748,80,551.5278157540748,80,1014.3333333333333,80" style="stroke-width: 1; stroke: black; fill-opacity: 0;"></path><path class="link" d="M42.31804432461213,134L42.31804432461213,128,42.31804432461213,128,73.17404533953524,128" style="stroke-width: 1; stroke: black; fill-opacity: 0;"></path><path class="link" d="M42.31804432461213,134L42.31804432461213,140,42.31804432461213,140,73.27366219399659,140" style="stroke-width: 1; stroke: black; fill-opacity: 0;"></path><path class="link" d="M10,128.6875L10,100.0625,10,100.0625,41.44024828580898,100.0625" style="stroke-linejoin: round; fill-opacity: 0;"></path><path class="link" d="M10,128.6875L10,134,10,134,42.31804432461213,134" style="stroke-linejoin: round; fill-opacity: 0;"></path><path class="link" d="M10,128.6875L10,152,10,152,418.64114491765304,152" style="stroke-linejoin: round; fill-opacity: 0;"></path><path class="link" d="M41.44024828580898,100.0625L41.44024828580898,84.125,41.44024828580898,84.125,76.00029500332592,84.125" style="stroke-linejoin: round; fill-opacity: 0;"></path><path class="link" d="M41.44024828580898,100.0625L41.44024828580898,116,41.44024828580898,116,74.97959440442386,116" style="stroke-linejoin: round; fill-opacity: 0;"></path><path class="link" d="M76.00029500332592,84.125L76.00029500332592,64.25,76.00029500332592,64.25,339.1198823683372,64.25" style="stroke-linejoin: round; fill-opacity: 0;"></path><path class="link" d="M76.00029500332592,84.125L76.00029500332592,104,76.00029500332592,104,113.68424650710797,104" style="stroke-linejoin: round; fill-opacity: 0;"></path><path class="link" d="M339.1198823683372,64.25L339.1198823683372,45.5,339.1198823683372,45.5,519.8895115295418,45.5" style="stroke-linejoin: round; fill-opacity: 0;"></path><path class="link" d="M339.1198823683372,64.25L339.1198823683372,83,339.1198823683372,83,419.12151572295977,83" style="stroke-linejoin: round; fill-opacity: 0;"></path><path class="link" d="M519.8895115295418,45.5L519.8895115295418,35,519.8895115295418,35,556.781037843561,35" style="stroke-linejoin: round; fill-opacity: 0;"></path><path class="link" d="M519.8895115295418,45.5L519.8895115295418,56,519.8895115295418,56,564.0175562827966,56" style="stroke-linejoin: round; fill-opacity: 0;"></path><path class="link" d="M556.781037843561,35L556.781037843561,26,556.781037843561,26,588.3812410864844,26" style="stroke-linejoin: round; fill-opacity: 0;"></path><path class="link" d="M556.781037843561,35L556.781037843561,44,556.781037843561,44,591.5104052981,44" style="stroke-linejoin: round; fill-opacity: 0;"></path><path class="link" d="M588.3812410864844,26L588.3812410864844,20,588.3812410864844,20,622.5266903433524,20" style="stroke-linejoin: round; fill-opacity: 0;"></path><path class="link" d="M588.3812410864844,26L588.3812410864844,32,588.3812410864844,32,625.0924057273054,32" style="stroke-linejoin: round; fill-opacity: 0;"></path><path class="link" d="M419.12151572295977,83L419.12151572295977,74,419.12151572295977,74,551.5278157540748,74" style="stroke-linejoin: round; fill-opacity: 0;"></path><path class="link" d="M419.12151572295977,83L419.12151572295977,92,419.12151572295977,92,644.377375336219,92" style="stroke-linejoin: round; fill-opacity: 0;"></path><path class="link" d="M551.5278157540748,74L551.5278157540748,68,551.5278157540748,68,825.0869382597664,68" style="stroke-linejoin: round; fill-opacity: 0;"></path><path class="link" d="M551.5278157540748,74L551.5278157540748,80,551.5278157540748,80,1014.3333333333333,80" style="stroke-linejoin: round; fill-opacity: 0;"></path><path class="link" d="M42.31804432461213,134L42.31804432461213,128,42.31804432461213,128,73.17404533953524,128" style="stroke-linejoin: round; fill-opacity: 0;"></path><path class="link" d="M42.31804432461213,134L42.31804432461213,140,42.31804432461213,140,73.27366219399659,140" style="stroke-linejoin: round; fill-opacity: 0;"></path><g class="node" transform="translate(10,128.6875)"><circle class="inode-dot" r="3"></circle><text width="20" height="24" x="5" y="3"><tspan class="fl" style="opacity: 1;"><tspan class="ch"></tspan><tspan style="fill: rgb(0, 0, 0);"></tspan><tspan id="inode0"></tspan></tspan></text><text class="support_label" text-anchor="end" dx="-12" dy="-2"></text></g><g class="node" transform="translate(41.44024658203125,100.0625)"><circle class="inode-dot" r="3"></circle><text width="20" height="24" x="5" y="3"><tspan class="fl" style="opacity: 1;"><tspan class="ch"></tspan><tspan style="fill: rgb(0, 0, 0);"></tspan><tspan id="inode1"></tspan></tspan></text><text class="support_label" text-anchor="end" dx="-12" dy="-2"></text></g><g class="node" transform="translate(76.00029754638672,84.125)"><circle class="inode-dot" r="3"></circle><text width="20" height="24" x="5" y="3"><tspan class="fl" style="opacity: 1;"><tspan class="ch"></tspan><tspan style="fill: rgb(0, 0, 0);"></tspan><tspan id="inode2"></tspan></tspan></text><text class="support_label" text-anchor="end" dx="-12" dy="-2"></text></g><g class="node" transform="translate(339.119873046875,64.25)"><circle class="inode-dot" r="3"></circle><text width="20" height="24" x="5" y="3"><tspan class="fl" style="opacity: 1;"><tspan class="ch"></tspan><tspan style="fill: rgb(0, 0, 0);"></tspan><tspan id="inode3"></tspan></tspan></text><text class="support_label" text-anchor="end" dx="-12" dy="-2"></text></g><g class="node" transform="translate(519.8895263671875,45.5)"><circle class="inode-dot" r="3"></circle><text width="20" height="24" x="5" y="3"><tspan class="fl" style="opacity: 1;"><tspan class="ch"></tspan><tspan style="fill: rgb(0, 0, 0);"></tspan><tspan id="inode4"></tspan></tspan></text><text class="support_label" text-anchor="end" dx="-12" dy="-2"></text></g><g class="node" transform="translate(556.7810668945312,35)"><circle class="inode-dot" r="3"></circle><text width="20" height="24" x="5" y="3"><tspan class="fl" style="opacity: 1;"><tspan class="ch"></tspan><tspan style="fill: rgb(0, 0, 0);"></tspan><tspan id="inode5"></tspan></tspan></text><text class="support_label" text-anchor="end" dx="-12" dy="-2"></text></g><g class="node" transform="translate(588.3812255859375,26)"><circle class="inode-dot" r="3"></circle><text width="20" height="24" x="5" y="3"><tspan class="fl" style="opacity: 1;"><tspan class="ch"></tspan><tspan style="fill: rgb(0, 0, 0);"></tspan><tspan id="inode6"></tspan></tspan></text><text class="support_label" text-anchor="end" dx="-12" dy="-2"></text></g><g class="node" transform="translate(622.5266723632812,20)"><circle class="tip-dot" r="3"></circle><text width="90" height="24" x="5" y="3"><tspan class="fl" style="opacity: 1;"><tspan class="ch"></tspan><tspan style="fill: rgb(0, 0, 0);"></tspan><tspan id="553212.3" style="fill: rgb(255, 0, 0);">Staphylococcus capitis SK14</tspan></tspan></text><text class="" text-anchor="start" dx="12" dy="3"></text></g><g class="node" transform="translate(625.0924072265625,32)"><circle class="tip-dot" r="3"></circle><text width="90" height="24" x="5" y="3"><tspan class="fl" style="opacity: 1;"><tspan class="ch"></tspan><tspan style="fill: rgb(0, 0, 0);"></tspan><tspan id="29388.43" style="fill: rgb(255, 0, 0);">Staphylococcus capitis strain FDAARGOS_173</tspan></tspan></text><text class="" text-anchor="start" dx="12" dy="3"></text></g><g class="node" transform="translate(591.5103759765625,44)"><circle class="tip-dot" r="3"></circle><text width="80" height="24" x="5" y="3"><tspan class="fl" style="opacity: 1;"><tspan class="ch"></tspan><tspan style="fill: rgb(0, 0, 0);"></tspan><tspan id="72758.6" style="fill: rgb(255, 0, 0);">Staphylococcus capitis subsp. capitis strain AYP1020</tspan></tspan></text><text class="" text-anchor="start" dx="12" dy="3"></text></g><g class="node" transform="translate(564.017578125,56)"><circle class="tip-dot" r="3"></circle><text width="90" height="24" x="5" y="3"><tspan class="fl" style="opacity: 1;"><tspan class="ch"></tspan><tspan style="fill: rgb(0, 0, 0);"></tspan><tspan id="435838.3" style="fill: rgb(255, 0, 0);">Staphylococcus caprae C87</tspan></tspan></text><text class="" text-anchor="start" dx="12" dy="3"></text></g><g class="node" transform="translate(419.12152099609375,83)"><circle class="inode-dot" r="3"></circle><text width="30" height="24" x="5" y="3"><tspan class="fl" style="opacity: 1;"><tspan class="ch"></tspan><tspan style="fill: rgb(0, 0, 0);"></tspan><tspan id="inode11"></tspan></tspan></text><text class="support_label" text-anchor="end" dx="-12" dy="-2">95</text></g><g class="node" transform="translate(551.52783203125,74)"><circle class="inode-dot" r="3"></circle><text width="30" height="24" x="5" y="3"><tspan class="fl" style="opacity: 1;"><tspan class="ch"></tspan><tspan style="fill: rgb(0, 0, 0);"></tspan><tspan id="inode12"></tspan></tspan></text><text class="support_label" text-anchor="end" dx="-12" dy="-2"></text></g><g class="node" transform="translate(825.0869140625,68)"><circle class="tip-dot" r="3"></circle><text width="70" height="24" x="5" y="3"><tspan class="fl" style="opacity: 1;"><tspan class="ch"></tspan><tspan style="fill: rgb(0, 0, 0);"></tspan><tspan id="1293.6" style="fill: rgb(255, 0, 0);">Staphylococcus gallinarum strain DSM 20610</tspan></tspan></text><text class="" text-anchor="start" dx="12" dy="3"></text></g><g class="node" transform="translate(1014.3333129882812,80)"><circle class="tip-dot" r="3"></circle><text width="80" height="24" x="5" y="3"><tspan class="fl" style="opacity: 1;"><tspan class="ch"></tspan><tspan style="fill: rgb(0, 0, 0);"></tspan><tspan id="1295.23" style="fill: rgb(255, 0, 0);">Staphylococcus schleiferi strain 2317-03</tspan></tspan></text><text class="" text-anchor="start" dx="12" dy="3"></text></g><g class="node" transform="translate(644.3773803710938,92)"><circle class="tip-dot" r="3"></circle><text width="90" height="24" x="5" y="3"><tspan class="fl" style="opacity: 1;"><tspan class="ch"></tspan><tspan style="fill: rgb(0, 0, 0);"></tspan><tspan id="279808.8" style="fill: rgb(255, 0, 0);">Staphylococcus haemolyticus JCSC1435</tspan></tspan></text><text class="" text-anchor="start" dx="12" dy="3"></text></g><g class="node" transform="translate(113.68424987792969,104)"><circle class="tip-dot" r="3"></circle><text width="100" height="24" x="5" y="3"><tspan class="fl" style="opacity: 1;"><tspan class="ch"></tspan><tspan style="fill: rgb(0, 0, 0);"></tspan><tspan id="46170.310" style="fill: rgb(255, 0, 0);">Staphylococcus aureus subsp. aureus strain VB4283</tspan></tspan></text><text class="" text-anchor="start" dx="12" dy="3"></text></g><g class="node" transform="translate(74.9795913696289,116)"><circle class="tip-dot" r="3"></circle><text width="100" height="24" x="5" y="3"><tspan class="fl" style="opacity: 1;"><tspan class="ch"></tspan><tspan style="fill: rgb(0, 0, 0);"></tspan><tspan id="158879.11" style="fill: rgb(255, 0, 0);">Staphylococcus aureus subsp. aureus N315</tspan></tspan></text><text class="" text-anchor="start" dx="12" dy="3"></text></g><g class="node" transform="translate(42.31804275512695,134)"><circle class="inode-dot" r="3"></circle><text width="30" height="24" x="5" y="3"><tspan class="fl" style="opacity: 1;"><tspan class="ch"></tspan><tspan style="fill: rgb(0, 0, 0);"></tspan><tspan id="inode18"></tspan></tspan></text><text class="support_label" text-anchor="end" dx="-12" dy="-2"></text></g><g class="node" transform="translate(73.17404174804688,128)"><circle class="tip-dot" r="3"></circle><text width="100" height="24" x="5" y="3"><tspan class="fl" style="opacity: 1;"><tspan class="ch"></tspan><tspan style="fill: rgb(0, 0, 0);"></tspan><tspan id="1241616.6" style="fill: rgb(255, 0, 0);">Staphylococcus aureus subsp. aureus DSM 20231</tspan></tspan></text><text class="" text-anchor="start" dx="12" dy="3"></text></g><g class="node" transform="translate(73.2736587524414,140)"><circle class="tip-dot" r="3"></circle><text width="80" height="24" x="5" y="3"><tspan class="fl" style="opacity: 1;"><tspan class="ch"></tspan><tspan style="fill: rgb(0, 0, 0);"></tspan><tspan id="93061.5" style="fill: rgb(255, 0, 0);">Staphylococcus aureus subsp. aureus NCTC 8325</tspan></tspan></text><text class="" text-anchor="start" dx="12" dy="3"></text></g><g class="node" transform="translate(418.6411437988281,152)"><circle class="tip-dot" r="3"></circle><text width="70" height="24" x="5" y="3"><tspan class="fl ds" style="opacity: 1;"><tspan class="ch"></tspan><tspan style="fill: rgb(0, 0, 0);"></tspan><tspan id="1548.3">Clostridium scatologenes strain ATCC 25775</tspan></tspan></text><text class="" text-anchor="start" dx="12" dy="3"></text></g></svg>